Coordinates
version=1
nRows=12
nColumns=33
inDegrees=yes

Units are S.I. units (second, meters, Newtons, ...)
Angles are in degrees.

endheader
time	ground_thorax_rot_x	ground_thorax_rot_y	ground_thorax_rot_z	ground_thorax_tx	ground_thorax_ty	ground_thorax_tz	clav_prot_r	clav_elev_r	scapula_abduction_r	scapula_elevation_r	scapula_upward_rot_r	scapula_winging_r	shoulder_elv_r	plane_of_elev_r	axial_rot_r	elbow_flexion_r	pro_sup_r	wrist_flex_r	wrist_dev_r	clav_prot_l	clav_elev_l	scapula_abduction_l	scapula_elevation_l	scapula_upward_rot_l	scapula_winging_l	shoulder_elv_l	plane_of_elev_l	axial_rot_l	elbow_flexion_l	pro_sup_l	wrist_flex_l	wrist_dev_l
      4.55000000	     -0.23567918	      0.63697829	     13.09857757	     -0.11356034	      1.02797632	      0.01852951	      7.93813918	    -10.56886057	     13.81446554	     -3.27004979	     -0.36938042	     -2.07860614	    -44.12573934	    -75.36337519	     95.92128269	    -77.69595234	   -147.59145686	     42.13167759	    -24.36049249	     11.04315313	     -3.29431310	    -14.98908979	    -19.98546533	    -38.15324120	     -0.49197359	     62.85551863	    -29.20315566	      5.81865980	     70.68858724	     18.84009829	      8.98913167	    -21.84121735
      4.56000000	     -0.21699032	      0.78181543	     13.07301463	     -0.11327311	      1.02775942	      0.01876698	      8.00084630	    -10.63967224	     13.99986343	     -3.40188454	     -0.20766056	     -2.12389690	    -43.73128491	    -75.23093409	     95.94926843	    -78.47194921	   -147.64575806	     42.04512367	    -24.27236310	     11.18740004	     -3.44238288	    -15.18375425	    -19.69174900	    -37.84659215	     -0.34619172	     63.12353297	    -28.66014098	      5.68629512	     70.51844138	     18.85346168	      9.21072587	    -21.65930310
      4.57000000	     -0.25298847	      0.89080814	     12.96459437	     -0.11324268	      1.02804768	      0.01882096	      8.11288340	    -10.87428020	     14.33973998	     -3.73912801	      0.08890471	     -2.17060093	    -43.22954252	    -75.10871873	     96.09344441	    -78.95981294	   -147.83355911	     41.53861589	    -23.96274788	     11.37269577	     -3.66557446	    -15.45738958	    -19.31688725	    -37.52693320	     -0.15187228	     63.38265802	    -27.99840361	      5.64090434	     70.09777791	     18.82957369	      9.64143273	    -21.22887858
      4.58000000	     -0.37305404	      0.86024865	     13.13762568	     -0.11333360	      1.02763587	      0.01884216	      8.25941306	    -10.83203828	     14.54848415	     -3.66190203	      0.00184013	     -2.26537371	    -41.42181538	    -75.02539915	     97.83841394	    -80.19164891	   -149.34271794	     37.11560595	    -21.19696453	     11.72006753	     -3.78597103	    -16.12360285	    -19.27938531	    -37.73267111	      0.12153305	     63.51362304	    -27.25628678	      6.46498459	     70.24568277	     18.15485202	     12.75874244	    -18.53582608
      4.59000000	     -0.40169199	      0.99894334	     13.13484385	     -0.11324692	      1.02771431	      0.01889671	      8.37606836	    -11.05230581	     14.86251686	     -3.95682625	      0.23042965	     -2.30210172	    -40.98399821	    -74.92752403	     97.90455533	    -80.67616058	   -149.47711129	     36.96675048	    -21.09280668	     11.90253678	     -4.01737339	    -16.38002440	    -18.88102320	    -37.37555799	      0.31013844	     63.77316733	    -26.63297814	      6.28341129	     69.70166032	     18.19646890	     12.94628313	    -18.32734980
      4.60000000	     -0.57130540	      0.99151992	     13.07882133	     -0.11323697	      1.02750600	      0.01882358	      8.49384085	    -11.19381089	     15.10364645	     -4.11572737	      0.30618833	     -2.33764118	    -39.02191333	    -74.69655433	     99.55079698	    -81.63657476	   -150.85547445	     33.61650369	    -18.57990501	     12.27266658	     -4.13899458	    -17.02344458	    -18.70821933	    -37.29664346	      0.62310759	     63.81917707	    -25.81057143	      7.02066736	     69.45453092	     17.68501659	     15.04203580	    -16.68330256
      4.61000000	     -0.64905430	      1.15964857	     13.29032551	     -0.11339094	      1.02745021	      0.01879024	      8.56450003	    -11.38957564	     15.02810221	     -4.11692386	     -0.12021716	     -2.21099009	    -36.35578969	    -74.55424674	    101.55888445	    -82.42119932	   -151.95690349	     31.36028102	    -16.66829980	     12.69406321	     -4.38844172	    -17.75841895	    -18.41114372	    -37.21766927	      0.98807229	     63.87186456	    -24.99172508	      7.31994791	     68.79163548	     17.43923317	     16.64501002	    -15.55556166
      4.62000000	     -0.76781677	      1.28200233	     13.24718129	     -0.11323125	      1.02765140	      0.01867413	      8.68025047	    -11.68721326	     15.41906553	     -4.55218080	      0.27629420	     -2.24546165	    -35.93875662	    -74.38383584	    101.66559246	    -82.63653595	   -152.05108411	     31.18677112	    -16.53362026	     12.88423185	     -4.65433012	    -18.01488134	    -17.94829381	    -36.79058761	      1.18745232	     64.11170099	    -24.32829169	      7.19464590	     67.99087917	     17.51710625	     16.76140609	    -15.36000476
      4.63000000	     -0.92636641	      1.31620966	     13.10927442	     -0.11295714	      1.02738127	      0.01854070	      8.73864679	    -11.60953953	     15.79418778	     -4.71927962	      0.85548706	     -2.43962000	    -34.31957774	    -74.00231735	    103.20081598	    -83.24311312	   -152.96013053	     28.22639187	    -13.94959233	     13.23460031	     -4.70220787	    -18.55564540	    -17.68509133	    -36.37125753	      1.50878462	     63.85478662	    -23.35546680	      7.93455612	     67.27134298	     17.20294124	     18.37394016	    -14.38512880
      4.64000000	     -1.05680984	      1.45948043	     13.20401770	     -0.11288321	      1.02774698	      0.01840898	      8.91409711	    -11.95144317	     16.23468530	     -5.14228319	      1.13586176	     -2.46701455	    -33.82516739	    -73.71185977	    103.25162189	    -83.21546182	   -153.06828453	     27.91466459	    -13.72486380	     13.43804350	     -5.07413933	    -18.84265086	    -17.13047724	    -35.95811660	      1.71842473	     64.09355771	    -22.73193778	      7.77917617	     66.16749263	     17.31834297	     18.57594960	    -14.11927441
      4.65000000	     -1.18933713	      1.42693674	     13.03964243	     -0.11280832	      1.02727310	      0.01819156	      9.17706648	    -11.89709104	     16.93231772	     -5.29880945	      1.65590463	     -2.77594119	    -32.01242949	    -73.23187882	    104.80868714	    -83.80368477	   -153.95078373	     24.59819058	    -10.66370659	     13.87544984	     -5.18072491	    -19.55169302	    -16.84406111	    -35.61437488	      2.11155688	     63.81662349	    -21.71726552	      8.71795395	     65.36419499	     17.00304682	     20.61550571	    -13.14066261
      4.66000000	     -1.35442288	      1.58486518	     13.20777690	     -0.11266780	      1.02771821	      0.01795648	      9.35581601	    -12.24723277	     17.37865759	     -5.72907529	      1.93906514	     -2.79405925	    -31.50309602	    -72.87030728	    104.87600276	    -83.50172173	   -154.03782164	     24.25397574	    -10.43338538	     14.07833720	     -5.58238376	    -19.84155499	    -16.26545520	    -35.20758060	      2.31420122	     64.04483557	    -21.09674868	      8.51514522	     64.06747830	     17.15870875	     20.81441625	    -12.85556343
